# xmcd CD database file
#
# Track frame offsets:
#	150
#	14095
#	33378
#	43466
#	62836
#	79948
#	107442
#	135693
#	149890
#
# Disc length: 2196 seconds
#
# Revision: 0
# Processed by: cddbd v1.5.1PL0 Copyright (c) Steve Scherf et al.
# Submitted via: CDex 1.51
#
DISCID=89089209
DTITLE=Textbook Blues - Textbook Blues
DYEAR=1900
DGENRE=Blues
TTITLE0=Everyday
TTITLE1=Who's Been Talking
TTITLE2=Mary Had A Little Lamb
TTITLE3=Piece of Mind
TTITLE4=Lucky Man
TTITLE5=Women Don't
TTITLE6=Full Time Lover
TTITLE7=Once You Get A Taste
TTITLE8=Lie to Me
EXTD=
EXTT0=
EXTT1=
EXTT2=
EXTT3=
EXTT4=
EXTT5=
EXTT6=
EXTT7=
EXTT8=
PLAYORDER=
